<svg width="70" height="118" viewBox="0 0 70 118" fill="none" xmlns="http://www.w3.org/2000/svg">
<g clip-path="url(#clip0_44_138)">
<path d="M3 6C4.65685 6 6 4.65685 6 3C6 1.34315 4.65685 0 3 0C1.34315 0 0 1.34315 0 3C0 4.65685 1.34315 6 3 6Z" fill="white"/>
<path d="M3 22C4.65685 22 6 20.6569 6 19C6 17.3431 4.65685 16 3 16C1.34315 16 0 17.3431 0 19C0 20.6569 1.34315 22 3 22Z" fill="white"/>
<path d="M3 38C4.65685 38 6 36.6569 6 35C6 33.3431 4.65685 32 3 32C1.34315 32 0 33.3431 0 35C0 36.6569 1.34315 38 3 38Z" fill="white"/>
<path d="M3 54C4.65685 54 6 52.6569 6 51C6 49.3431 4.65685 48 3 48C1.34315 48 0 49.3431 0 51C0 52.6569 1.34315 54 3 54Z" fill="white"/>
<path d="M3 70C4.65685 70 6 68.6569 6 67C6 65.3431 4.65685 64 3 64C1.34315 64 0 65.3431 0 67C0 68.6569 1.34315 70 3 70Z" fill="white"/>
<path d="M3 86C4.65685 86 6 84.6569 6 83C6 81.3431 4.65685 80 3 80C1.34315 80 0 81.3431 0 83C0 84.6569 1.34315 86 3 86Z" fill="white"/>
<path d="M3 102C4.65685 102 6 100.657 6 99C6 97.3431 4.65685 96 3 96C1.34315 96 0 97.3431 0 99C0 100.657 1.34315 102 3 102Z" fill="white"/>
<path d="M3 118C4.65685 118 6 116.657 6 115C6 113.343 4.65685 112 3 112C1.34315 112 0 113.343 0 115C0 116.657 1.34315 118 3 118Z" fill="white"/>
<path d="M19 6C20.6569 6 22 4.65685 22 3C22 1.34315 20.6569 0 19 0C17.3431 0 16 1.34315 16 3C16 4.65685 17.3431 6 19 6Z" fill="white"/>
<path d="M19 22C20.6569 22 22 20.6569 22 19C22 17.3431 20.6569 16 19 16C17.3431 16 16 17.3431 16 19C16 20.6569 17.3431 22 19 22Z" fill="white"/>
<path d="M19 38C20.6569 38 22 36.6569 22 35C22 33.3431 20.6569 32 19 32C17.3431 32 16 33.3431 16 35C16 36.6569 17.3431 38 19 38Z" fill="white"/>
<path d="M19 54C20.6569 54 22 52.6569 22 51C22 49.3431 20.6569 48 19 48C17.3431 48 16 49.3431 16 51C16 52.6569 17.3431 54 19 54Z" fill="white"/>
<path d="M19 70C20.6569 70 22 68.6569 22 67C22 65.3431 20.6569 64 19 64C17.3431 64 16 65.3431 16 67C16 68.6569 17.3431 70 19 70Z" fill="white"/>
<path d="M19 86C20.6569 86 22 84.6569 22 83C22 81.3431 20.6569 80 19 80C17.3431 80 16 81.3431 16 83C16 84.6569 17.3431 86 19 86Z" fill="white"/>
<path d="M19 102C20.6569 102 22 100.657 22 99C22 97.3431 20.6569 96 19 96C17.3431 96 16 97.3431 16 99C16 100.657 17.3431 102 19 102Z" fill="white"/>
<path d="M19 118C20.6569 118 22 116.657 22 115C22 113.343 20.6569 112 19 112C17.3431 112 16 113.343 16 115C16 116.657 17.3431 118 19 118Z" fill="white"/>
<path d="M35 6C36.6569 6 38 4.65685 38 3C38 1.34315 36.6569 0 35 0C33.3431 0 32 1.34315 32 3C32 4.65685 33.3431 6 35 6Z" fill="white"/>
<path d="M35 22C36.6569 22 38 20.6569 38 19C38 17.3431 36.6569 16 35 16C33.3431 16 32 17.3431 32 19C32 20.6569 33.3431 22 35 22Z" fill="white"/>
<path d="M35 38C36.6569 38 38 36.6569 38 35C38 33.3431 36.6569 32 35 32C33.3431 32 32 33.3431 32 35C32 36.6569 33.3431 38 35 38Z" fill="white"/>
<path d="M35 54C36.6569 54 38 52.6569 38 51C38 49.3431 36.6569 48 35 48C33.3431 48 32 49.3431 32 51C32 52.6569 33.3431 54 35 54Z" fill="white"/>
<path d="M35 70C36.6569 70 38 68.6569 38 67C38 65.3431 36.6569 64 35 64C33.3431 64 32 65.3431 32 67C32 68.6569 33.3431 70 35 70Z" fill="white"/>
<path d="M35 86C36.6569 86 38 84.6569 38 83C38 81.3431 36.6569 80 35 80C33.3431 80 32 81.3431 32 83C32 84.6569 33.3431 86 35 86Z" fill="white"/>
<path d="M35 102C36.6569 102 38 100.657 38 99C38 97.3431 36.6569 96 35 96C33.3431 96 32 97.3431 32 99C32 100.657 33.3431 102 35 102Z" fill="white"/>
<path d="M35 118C36.6569 118 38 116.657 38 115C38 113.343 36.6569 112 35 112C33.3431 112 32 113.343 32 115C32 116.657 33.3431 118 35 118Z" fill="white"/>
<path d="M51 6C52.6569 6 54 4.65685 54 3C54 1.34315 52.6569 0 51 0C49.3431 0 48 1.34315 48 3C48 4.65685 49.3431 6 51 6Z" fill="white"/>
<path d="M51 22C52.6569 22 54 20.6569 54 19C54 17.3431 52.6569 16 51 16C49.3431 16 48 17.3431 48 19C48 20.6569 49.3431 22 51 22Z" fill="white"/>
<path d="M51 38C52.6569 38 54 36.6569 54 35C54 33.3431 52.6569 32 51 32C49.3431 32 48 33.3431 48 35C48 36.6569 49.3431 38 51 38Z" fill="white"/>
<path d="M51 54C52.6569 54 54 52.6569 54 51C54 49.3431 52.6569 48 51 48C49.3431 48 48 49.3431 48 51C48 52.6569 49.3431 54 51 54Z" fill="white"/>
<path d="M51 70C52.6569 70 54 68.6569 54 67C54 65.3431 52.6569 64 51 64C49.3431 64 48 65.3431 48 67C48 68.6569 49.3431 70 51 70Z" fill="white"/>
<path d="M51 86C52.6569 86 54 84.6569 54 83C54 81.3431 52.6569 80 51 80C49.3431 80 48 81.3431 48 83C48 84.6569 49.3431 86 51 86Z" fill="white"/>
<path d="M51 102C52.6569 102 54 100.657 54 99C54 97.3431 52.6569 96 51 96C49.3431 96 48 97.3431 48 99C48 100.657 49.3431 102 51 102Z" fill="white"/>
<path d="M51 118C52.6569 118 54 116.657 54 115C54 113.343 52.6569 112 51 112C49.3431 112 48 113.343 48 115C48 116.657 49.3431 118 51 118Z" fill="white"/>
<path d="M67 6C68.6569 6 70 4.65685 70 3C70 1.34315 68.6569 0 67 0C65.3431 0 64 1.34315 64 3C64 4.65685 65.3431 6 67 6Z" fill="white"/>
<path d="M67 22C68.6569 22 70 20.6569 70 19C70 17.3431 68.6569 16 67 16C65.3431 16 64 17.3431 64 19C64 20.6569 65.3431 22 67 22Z" fill="white"/>
<path d="M67 38C68.6569 38 70 36.6569 70 35C70 33.3431 68.6569 32 67 32C65.3431 32 64 33.3431 64 35C64 36.6569 65.3431 38 67 38Z" fill="white"/>
<path d="M67 54C68.6569 54 70 52.6569 70 51C70 49.3431 68.6569 48 67 48C65.3431 48 64 49.3431 64 51C64 52.6569 65.3431 54 67 54Z" fill="white"/>
<path d="M67 70C68.6569 70 70 68.6569 70 67C70 65.3431 68.6569 64 67 64C65.3431 64 64 65.3431 64 67C64 68.6569 65.3431 70 67 70Z" fill="white"/>
<path d="M67 86C68.6569 86 70 84.6569 70 83C70 81.3431 68.6569 80 67 80C65.3431 80 64 81.3431 64 83C64 84.6569 65.3431 86 67 86Z" fill="white"/>
<path d="M67 102C68.6569 102 70 100.657 70 99C70 97.3431 68.6569 96 67 96C65.3431 96 64 97.3431 64 99C64 100.657 65.3431 102 67 102Z" fill="white"/>
<path d="M67 118C68.6569 118 70 116.657 70 115C70 113.343 68.6569 112 67 112C65.3431 112 64 113.343 64 115C64 116.657 65.3431 118 67 118Z" fill="white"/>
</g>
<defs>
<clipPath id="clip0_44_138">
<rect width="70" height="118" fill="white"/>
</clipPath>
</defs>
</svg>
