<svg width="17" height="11" viewBox="0 0 17 11" fill="none" xmlns="http://www.w3.org/2000/svg">
<path d="M15.1215 5.30148C14.2168 3.89672 13.0829 2.84612 11.7198 2.14969C12.0829 2.76874 12.2644 3.43838 12.2644 4.15862C12.2644 5.25981 11.873 6.20178 11.0903 6.98451C10.3076 7.76725 9.36559 8.15862 8.2644 8.15862C7.16321 8.15862 6.22125 7.76725 5.43851 6.98451C4.65577 6.20178 4.2644 5.25981 4.2644 4.15862C4.2644 3.43838 4.44595 2.76874 4.80905 2.14969C3.44595 2.84612 2.31202 3.89672 1.40726 5.30148C2.19893 6.52172 3.19149 7.49344 4.38494 8.21666C5.57839 8.93987 6.87155 9.30148 8.2644 9.30148C9.65726 9.30148 10.9504 8.93987 12.1439 8.21666C13.3373 7.49344 14.3299 6.52172 15.1215 5.30148ZM8.56798 2.17648C8.56798 2.17648 8.58881 2.15565 8.63048 2.11398C8.67214 2.07231 8.69298 1.99195 8.69298 1.87291C8.69298 1.75386 8.65131 1.65267 8.56798 1.56934C8.48464 1.486 8.38345 1.44434 8.2644 1.44434C7.52036 1.44434 6.88196 1.7107 6.34923 2.24344C5.81649 2.77618 5.55012 3.41457 5.55012 4.15862C5.55012 4.27767 5.59179 4.37886 5.67512 4.46219C5.75845 4.54553 5.85964 4.58719 5.97869 4.58719C6.09774 4.58719 6.19893 4.54553 6.28226 4.46219C6.36559 4.37886 6.40726 4.27767 6.40726 4.15862C6.40726 3.64672 6.58881 3.20922 6.9519 2.84612C7.315 2.48303 7.7525 2.30148 8.2644 2.30148C8.38345 2.30148 8.48464 2.25981 8.56798 2.17648ZM16.0858 4.68541C16.2049 4.89374 16.2644 5.0991 16.2644 5.30148C16.2644 5.50386 16.2049 5.70922 16.0858 5.91755C15.2525 7.2866 14.132 8.38332 12.7242 9.20773C11.3165 10.0321 9.82988 10.4443 8.2644 10.4443C6.69893 10.4443 5.21232 10.0306 3.80458 9.20326C2.39684 8.37588 1.27631 7.28065 0.442976 5.91755C0.323928 5.70922 0.264404 5.50386 0.264404 5.30148C0.264404 5.0991 0.323928 4.89374 0.442976 4.68541C1.27631 3.32231 2.39684 2.22707 3.80458 1.39969C5.21232 0.572311 6.69893 0.158621 8.2644 0.158621C9.82988 0.158621 11.3165 0.572311 12.7242 1.39969C14.132 2.22707 15.2525 3.32231 16.0858 4.68541Z" fill="white"/>
</svg>
