<svg width="17" height="15" viewBox="0 0 17 15" fill="none" xmlns="http://www.w3.org/2000/svg">
<path d="M16.3745 10.8729V13.73C16.3745 13.9681 16.2912 14.1705 16.1245 14.3372C15.9578 14.5038 15.7555 14.5872 15.5174 14.5872H12.6602C12.4221 14.5872 12.2198 14.5038 12.0531 14.3372C11.8864 14.1705 11.8031 13.9681 11.8031 13.73V10.8729C11.8031 10.6348 11.8864 10.4324 12.0531 10.2657C12.2198 10.0991 12.4221 10.0157 12.6602 10.0157H13.5174V8.30144H8.94594V10.0157H9.80308C10.0412 10.0157 10.2436 10.0991 10.4102 10.2657C10.5769 10.4324 10.6602 10.6348 10.6602 10.8729V13.73C10.6602 13.9681 10.5769 14.1705 10.4102 14.3372C10.2436 14.5038 10.0412 14.5872 9.80308 14.5872H6.94594C6.70785 14.5872 6.50546 14.5038 6.3388 14.3372C6.17213 14.1705 6.0888 13.9681 6.0888 13.73V10.8729C6.0888 10.6348 6.17213 10.4324 6.3388 10.2657C6.50546 10.0991 6.70785 10.0157 6.94594 10.0157H7.80308V8.30144H3.23165V10.0157H4.0888C4.32689 10.0157 4.52927 10.0991 4.69594 10.2657C4.86261 10.4324 4.94594 10.6348 4.94594 10.8729V13.73C4.94594 13.9681 4.86261 14.1705 4.69594 14.3372C4.52927 14.5038 4.32689 14.5872 4.0888 14.5872H1.23165C0.993559 14.5872 0.791178 14.5038 0.624512 14.3372C0.457845 14.1705 0.374512 13.9681 0.374512 13.73V10.8729C0.374512 10.6348 0.457845 10.4324 0.624512 10.2657C0.791178 10.0991 0.993559 10.0157 1.23165 10.0157H2.0888V8.30144C2.0888 7.99192 2.20189 7.72406 2.42808 7.49787C2.65427 7.27168 2.92213 7.15859 3.23165 7.15859H7.80308V5.4443H6.94594C6.70785 5.4443 6.50546 5.36097 6.3388 5.1943C6.17213 5.02763 6.0888 4.82525 6.0888 4.58716V1.73001C6.0888 1.49192 6.17213 1.28954 6.3388 1.12287C6.50546 0.956205 6.70785 0.872871 6.94594 0.872871H9.80308C10.0412 0.872871 10.2436 0.956205 10.4102 1.12287C10.5769 1.28954 10.6602 1.49192 10.6602 1.73001V4.58716C10.6602 4.82525 10.5769 5.02763 10.4102 5.1943C10.2436 5.36097 10.0412 5.4443 9.80308 5.4443H8.94594V7.15859H13.5174C13.8269 7.15859 14.0948 7.27168 14.3209 7.49787C14.5471 7.72406 14.6602 7.99192 14.6602 8.30144V10.0157H15.5174C15.7555 10.0157 15.9578 10.0991 16.1245 10.2657C16.2912 10.4324 16.3745 10.6348 16.3745 10.8729Z" fill="white"/>
</svg>
