<svg width="16" height="15" viewBox="0 0 16 15" fill="none" xmlns="http://www.w3.org/2000/svg">
<path d="M9.95755 9.20442C9.95755 9.20442 10.1532 9.00873 10.5446 8.61736C10.936 8.22599 11.1317 7.47971 11.1317 6.37852C11.1317 5.27733 10.7403 4.33537 9.95755 3.55263C9.17482 2.76989 8.23285 2.37852 7.13166 2.37852C6.03047 2.37852 5.08851 2.76989 4.30577 3.55263C3.52303 4.33537 3.13166 5.27733 3.13166 6.37852C3.13166 7.47971 3.52303 8.42168 4.30577 9.20442C5.08851 9.98715 6.03047 10.3785 7.13166 10.3785C8.23285 10.3785 9.17482 9.98715 9.95755 9.20442ZM15.7031 13.8071C15.7031 14.1166 15.59 14.3845 15.3638 14.6107C15.1376 14.8369 14.8698 14.95 14.5602 14.95C14.2388 14.95 13.9709 14.8369 13.7567 14.6107L10.6942 11.5571C9.62869 12.2952 8.44119 12.6642 7.13166 12.6642C6.28047 12.6642 5.46648 12.4991 4.6897 12.1687C3.91291 11.8383 3.24327 11.3919 2.68077 10.8294C2.11827 10.2669 1.67184 9.59727 1.34148 8.82049C1.01113 8.0437 0.845947 7.22971 0.845947 6.37852C0.845947 5.52733 1.01113 4.71334 1.34148 3.93656C1.67184 3.15977 2.11827 2.49013 2.68077 1.92763C3.24327 1.36513 3.91291 0.9187 4.6897 0.588344C5.46648 0.257986 6.28047 0.0928078 7.13166 0.0928078C7.98285 0.0928078 8.79684 0.257986 9.57363 0.588344C10.3504 0.9187 11.0201 1.36513 11.5826 1.92763C12.1451 2.49013 12.5915 3.15977 12.9218 3.93656C13.2522 4.71334 13.4174 5.52733 13.4174 6.37852C13.4174 7.68805 13.0483 8.87555 12.3102 9.94102L15.3727 13.0035C15.593 13.2238 15.7031 13.4916 15.7031 13.8071Z" fill="#838D8F"/>
</svg>
