<svg width="13" height="14" viewBox="0 0 13 14" fill="none" xmlns="http://www.w3.org/2000/svg">
<path d="M12.6203 10.8015C12.6203 10.9622 12.5905 11.172 12.531 11.4309C12.4714 11.6899 12.4089 11.8937 12.3435 12.0426C12.2185 12.3402 11.8554 12.6556 11.2542 12.989C10.6947 13.2926 10.1411 13.4443 9.59347 13.4443C9.43276 13.4443 9.27502 13.4339 9.12026 13.4131C8.9655 13.3923 8.79436 13.3551 8.60686 13.3015C8.41936 13.2479 8.27948 13.2048 8.18722 13.172C8.09496 13.1393 7.92978 13.0783 7.69169 12.989C7.45359 12.8997 7.30776 12.8461 7.25419 12.8283C6.67085 12.6199 6.15002 12.3729 5.69169 12.0872C4.93573 11.617 4.15002 10.9741 3.33454 10.1586C2.51907 9.34315 1.87621 8.55743 1.40597 7.80148C1.12026 7.34315 0.873233 6.82231 0.6649 6.23898C0.647042 6.18541 0.593471 6.03957 0.504185 5.80148C0.4149 5.56338 0.353888 5.3982 0.32115 5.30594C0.288411 5.21368 0.245257 5.0738 0.191685 4.8863C0.138114 4.6988 0.100911 4.52767 0.0800781 4.37291C0.0592448 4.21815 0.0488281 4.06041 0.0488281 3.89969C0.0488281 3.35207 0.200614 2.7985 0.504185 2.23898C0.837519 1.63779 1.15299 1.27469 1.45061 1.14969C1.59942 1.08422 1.80329 1.02172 2.06222 0.962193C2.32115 0.902669 2.53097 0.872907 2.69169 0.872907C2.77502 0.872907 2.83752 0.881835 2.87919 0.899693C2.98633 0.935407 3.14407 1.1616 3.3524 1.57826C3.41788 1.69136 3.50716 1.85207 3.62026 2.06041C3.73335 2.26874 3.83752 2.45773 3.93276 2.62737C4.02799 2.79701 4.12026 2.95624 4.20954 3.10505C4.2274 3.12886 4.27948 3.20326 4.36579 3.32826C4.4521 3.45326 4.51609 3.55892 4.55776 3.64523C4.59942 3.73154 4.62026 3.81636 4.62026 3.89969C4.62026 4.01874 4.53544 4.16755 4.36579 4.34612C4.19615 4.52469 4.01163 4.68838 3.81222 4.83719C3.61282 4.986 3.42829 5.14374 3.25865 5.31041C3.08901 5.47707 3.00419 5.61398 3.00419 5.72112C3.00419 5.77469 3.01907 5.84166 3.04883 5.92201C3.07859 6.00237 3.10389 6.06338 3.12472 6.10505C3.14555 6.14672 3.18722 6.21815 3.24972 6.31934C3.31222 6.42053 3.34645 6.47707 3.3524 6.48898C3.80478 7.30445 4.32264 8.00386 4.90597 8.58719C5.4893 9.17053 6.18871 9.68838 7.00419 10.1408C7.01609 10.1467 7.07264 10.1809 7.17383 10.2434C7.27502 10.3059 7.34645 10.3476 7.38811 10.3684C7.42978 10.3893 7.49079 10.4146 7.57115 10.4443C7.65151 10.4741 7.71847 10.489 7.77204 10.489C7.87919 10.489 8.01609 10.4042 8.18276 10.2345C8.34942 10.0649 8.50716 9.88035 8.65597 9.68094C8.80478 9.48154 8.96847 9.29701 9.14704 9.12737C9.32561 8.95773 9.47442 8.87291 9.59347 8.87291C9.6768 8.87291 9.76163 8.89374 9.84794 8.93541C9.93425 8.97707 10.0399 9.04106 10.1649 9.12737C10.2899 9.21368 10.3643 9.26576 10.3881 9.28362C10.5369 9.37291 10.6961 9.46517 10.8658 9.56041C11.0354 9.65565 11.2244 9.75981 11.4328 9.87291C11.6411 9.986 11.8018 10.0753 11.9149 10.1408C12.3316 10.3491 12.5578 10.5068 12.5935 10.614C12.6113 10.6556 12.6203 10.7181 12.6203 10.8015Z" fill="white"/>
</svg>
